<svg width="118" height="24" viewBox="0 0 118 24" fill="none" xmlns="http://www.w3.org/2000/svg">
<g clip-path="url(#clip0_3322_15282)">
<path d="M16.5 4.5C16.5 2.01469 14.4853 0 12 0C9.51469 0 7.5 2.01469 7.5 4.5C7.5 6.98531 9.51469 9 12 9C14.4853 9 16.5 6.98531 16.5 4.5ZM10.9495 11.3016C8.16844 9.59906 3.66375 9.13125 1.39687 9.00234C0.635156 8.95922 0 9.53953 0 10.2722V20.7159C0 21.3877 0.543281 21.9478 1.24172 21.9839C3.28828 22.0912 7.42875 22.4845 10.2905 23.9259C10.7297 24.1472 11.2505 23.8458 11.2505 23.3695V11.8387C11.25 11.6198 11.1417 11.4192 10.9495 11.3016ZM22.6031 9.00234C20.3367 9.13078 15.8316 9.59906 13.0509 11.3016C12.8588 11.4192 12.7505 11.6278 12.7505 11.8467V23.3681C12.7505 23.8458 13.2727 24.1477 13.7133 23.9259C16.5745 22.4859 20.7127 22.0927 22.7587 21.9853C23.4572 21.9487 24.0005 21.3886 24.0005 20.7169V10.2722C24 9.53953 23.3648 8.95922 22.6031 9.00234Z" fill="#663399"/>
</g>
<path d="M36.1016 8.625V20H33.7656V8.625H36.1016ZM39.6016 8.625V10.4609H30.3203V8.625H39.6016ZM45.2031 17.9766V11.5469H47.4531V20H45.3359L45.2031 17.9766ZM45.4531 16.2422L46.1172 16.2266C46.1172 16.7891 46.0521 17.3125 45.9219 17.7969C45.7917 18.276 45.5964 18.6927 45.3359 19.0469C45.0755 19.3958 44.7474 19.6693 44.3516 19.8672C43.9557 20.0599 43.4896 20.1562 42.9531 20.1562C42.5417 20.1562 42.1615 20.099 41.8125 19.9844C41.4688 19.8646 41.1719 19.6797 40.9219 19.4297C40.6771 19.1745 40.4844 18.849 40.3438 18.4531C40.2083 18.0521 40.1406 17.5703 40.1406 17.0078V11.5469H42.3906V17.0234C42.3906 17.2734 42.4193 17.4844 42.4766 17.6562C42.5391 17.8281 42.625 17.9688 42.7344 18.0781C42.8438 18.1875 42.9714 18.2656 43.1172 18.3125C43.2682 18.3594 43.4349 18.3828 43.6172 18.3828C44.0807 18.3828 44.4453 18.2891 44.7109 18.1016C44.9818 17.9141 45.1719 17.6589 45.2812 17.3359C45.3958 17.0078 45.4531 16.6432 45.4531 16.2422ZM53.3125 11.5469V13.1406H48.3906V11.5469H53.3125ZM49.6094 9.46094H51.8594V17.4531C51.8594 17.6979 51.8906 17.8854 51.9531 18.0156C52.0208 18.1458 52.1198 18.237 52.25 18.2891C52.3802 18.3359 52.5443 18.3594 52.7422 18.3594C52.8828 18.3594 53.0078 18.3542 53.1172 18.3438C53.2318 18.3281 53.3281 18.3125 53.4062 18.2969L53.4141 19.9531C53.2214 20.0156 53.013 20.0651 52.7891 20.1016C52.5651 20.138 52.3177 20.1562 52.0469 20.1562C51.5521 20.1562 51.1198 20.0755 50.75 19.9141C50.3854 19.7474 50.1042 19.4818 49.9062 19.1172C49.7083 18.7526 49.6094 18.2734 49.6094 17.6797V9.46094ZM54.0312 15.8594V15.6953C54.0312 15.0755 54.1198 14.5052 54.2969 13.9844C54.474 13.4583 54.7318 13.0026 55.0703 12.6172C55.4089 12.2318 55.8255 11.9323 56.3203 11.7188C56.8151 11.5 57.3828 11.3906 58.0234 11.3906C58.6641 11.3906 59.2344 11.5 59.7344 11.7188C60.2344 11.9323 60.6536 12.2318 60.9922 12.6172C61.3359 13.0026 61.5964 13.4583 61.7734 13.9844C61.9505 14.5052 62.0391 15.0755 62.0391 15.6953V15.8594C62.0391 16.474 61.9505 17.0443 61.7734 17.5703C61.5964 18.0911 61.3359 18.5469 60.9922 18.9375C60.6536 19.3229 60.237 19.6224 59.7422 19.8359C59.2474 20.0495 58.6797 20.1562 58.0391 20.1562C57.3984 20.1562 56.8281 20.0495 56.3281 19.8359C55.8333 19.6224 55.4141 19.3229 55.0703 18.9375C54.7318 18.5469 54.474 18.0911 54.2969 17.5703C54.1198 17.0443 54.0312 16.474 54.0312 15.8594ZM56.2812 15.6953V15.8594C56.2812 16.2135 56.3125 16.5443 56.375 16.8516C56.4375 17.1589 56.5365 17.4297 56.6719 17.6641C56.8125 17.8932 56.9948 18.0729 57.2188 18.2031C57.4427 18.3333 57.7161 18.3984 58.0391 18.3984C58.3516 18.3984 58.6198 18.3333 58.8438 18.2031C59.0677 18.0729 59.2474 17.8932 59.3828 17.6641C59.5182 17.4297 59.6172 17.1589 59.6797 16.8516C59.7474 16.5443 59.7812 16.2135 59.7812 15.8594V15.6953C59.7812 15.3516 59.7474 15.0286 59.6797 14.7266C59.6172 14.4193 59.5156 14.1484 59.375 13.9141C59.2396 13.6745 59.0599 13.487 58.8359 13.3516C58.612 13.2161 58.3411 13.1484 58.0234 13.1484C57.7057 13.1484 57.4349 13.2161 57.2109 13.3516C56.9922 13.487 56.8125 13.6745 56.6719 13.9141C56.5365 14.1484 56.4375 14.4193 56.375 14.7266C56.3125 15.0286 56.2812 15.3516 56.2812 15.6953ZM65.6719 13.3906V20H63.4219V11.5469H65.5391L65.6719 13.3906ZM68.2188 11.4922L68.1797 13.5781C68.0703 13.5625 67.9375 13.5495 67.7812 13.5391C67.6302 13.5234 67.4922 13.5156 67.3672 13.5156C67.0495 13.5156 66.7734 13.5573 66.5391 13.6406C66.3099 13.7188 66.1172 13.8359 65.9609 13.9922C65.8099 14.1484 65.6953 14.3385 65.6172 14.5625C65.5443 14.7865 65.5026 15.0417 65.4922 15.3281L65.0391 15.1875C65.0391 14.6406 65.0938 14.138 65.2031 13.6797C65.3125 13.2161 65.4714 12.8125 65.6797 12.4688C65.8932 12.125 66.1536 11.8594 66.4609 11.6719C66.7682 11.4844 67.1198 11.3906 67.5156 11.3906C67.6406 11.3906 67.7682 11.401 67.8984 11.4219C68.0286 11.4375 68.1354 11.4609 68.2188 11.4922ZM79.3281 17.0234C79.3281 16.8203 79.2969 16.638 79.2344 16.4766C79.1771 16.3099 79.0677 16.1589 78.9062 16.0234C78.7448 15.8828 78.5182 15.7448 78.2266 15.6094C77.9349 15.474 77.5573 15.3333 77.0938 15.1875C76.5781 15.0208 76.0885 14.8333 75.625 14.625C75.1667 14.4167 74.7604 14.1745 74.4062 13.8984C74.0573 13.6172 73.7812 13.2917 73.5781 12.9219C73.3802 12.5521 73.2812 12.1224 73.2812 11.6328C73.2812 11.1589 73.3854 10.7292 73.5938 10.3438C73.8021 9.95312 74.0938 9.61979 74.4688 9.34375C74.8438 9.0625 75.2865 8.84635 75.7969 8.69531C76.3125 8.54427 76.8776 8.46875 77.4922 8.46875C78.3307 8.46875 79.0625 8.61979 79.6875 8.92188C80.3125 9.22396 80.7969 9.63802 81.1406 10.1641C81.4896 10.6901 81.6641 11.2917 81.6641 11.9688H79.3359C79.3359 11.6354 79.2656 11.3438 79.125 11.0938C78.9896 10.8385 78.7812 10.638 78.5 10.4922C78.224 10.3464 77.875 10.2734 77.4531 10.2734C77.0469 10.2734 76.7083 10.3359 76.4375 10.4609C76.1667 10.5807 75.9635 10.7448 75.8281 10.9531C75.6927 11.1562 75.625 11.3854 75.625 11.6406C75.625 11.8333 75.6719 12.0078 75.7656 12.1641C75.8646 12.3203 76.0104 12.4661 76.2031 12.6016C76.3958 12.737 76.6328 12.8646 76.9141 12.9844C77.1953 13.1042 77.5208 13.2214 77.8906 13.3359C78.5104 13.5234 79.0547 13.7344 79.5234 13.9688C79.9974 14.2031 80.3932 14.4661 80.7109 14.7578C81.0286 15.0495 81.2682 15.3802 81.4297 15.75C81.5911 16.1198 81.6719 16.5391 81.6719 17.0078C81.6719 17.5026 81.5755 17.9453 81.3828 18.3359C81.1901 18.7266 80.9115 19.0573 80.5469 19.3281C80.1823 19.599 79.7474 19.8047 79.2422 19.9453C78.737 20.0859 78.1719 20.1562 77.5469 20.1562C76.9844 20.1562 76.4297 20.0833 75.8828 19.9375C75.3359 19.7865 74.8385 19.5599 74.3906 19.2578C73.9479 18.9557 73.5938 18.5703 73.3281 18.1016C73.0625 17.6328 72.9297 17.0781 72.9297 16.4375H75.2812C75.2812 16.7917 75.3359 17.0911 75.4453 17.3359C75.5547 17.5807 75.7083 17.7786 75.9062 17.9297C76.1094 18.0807 76.349 18.1901 76.625 18.2578C76.9062 18.3255 77.2135 18.3594 77.5469 18.3594C77.9531 18.3594 78.2865 18.3021 78.5469 18.1875C78.8125 18.0729 79.0078 17.9141 79.1328 17.7109C79.263 17.5078 79.3281 17.2786 79.3281 17.0234ZM87.2656 11.5469V13.1406H82.3438V11.5469H87.2656ZM83.5625 9.46094H85.8125V17.4531C85.8125 17.6979 85.8438 17.8854 85.9062 18.0156C85.974 18.1458 86.0729 18.237 86.2031 18.2891C86.3333 18.3359 86.4974 18.3594 86.6953 18.3594C86.8359 18.3594 86.9609 18.3542 87.0703 18.3438C87.1849 18.3281 87.2812 18.3125 87.3594 18.2969L87.3672 19.9531C87.1745 20.0156 86.9661 20.0651 86.7422 20.1016C86.5182 20.138 86.2708 20.1562 86 20.1562C85.5052 20.1562 85.0729 20.0755 84.7031 19.9141C84.3385 19.7474 84.0573 19.4818 83.8594 19.1172C83.6615 18.7526 83.5625 18.2734 83.5625 17.6797V9.46094ZM93.1094 18.0938V14.3281C93.1094 14.0573 93.0651 13.8255 92.9766 13.6328C92.888 13.4349 92.75 13.2812 92.5625 13.1719C92.3802 13.0625 92.1432 13.0078 91.8516 13.0078C91.6016 13.0078 91.3854 13.0521 91.2031 13.1406C91.0208 13.224 90.8802 13.3464 90.7812 13.5078C90.6823 13.6641 90.6328 13.849 90.6328 14.0625H88.3828C88.3828 13.7031 88.4661 13.362 88.6328 13.0391C88.7995 12.7161 89.0417 12.4323 89.3594 12.1875C89.6771 11.9375 90.0547 11.7422 90.4922 11.6016C90.9349 11.4609 91.4297 11.3906 91.9766 11.3906C92.6328 11.3906 93.2161 11.5 93.7266 11.7188C94.237 11.9375 94.638 12.2656 94.9297 12.7031C95.2266 13.1406 95.375 13.6875 95.375 14.3438V17.9609C95.375 18.4245 95.4036 18.8047 95.4609 19.1016C95.5182 19.3932 95.6016 19.6484 95.7109 19.8672V20H93.4375C93.3281 19.7708 93.2448 19.4844 93.1875 19.1406C93.1354 18.7917 93.1094 18.4427 93.1094 18.0938ZM93.4062 14.8516L93.4219 16.125H92.1641C91.8672 16.125 91.6094 16.1589 91.3906 16.2266C91.1719 16.2943 90.9922 16.3906 90.8516 16.5156C90.7109 16.6354 90.6068 16.776 90.5391 16.9375C90.4766 17.099 90.4453 17.276 90.4453 17.4688C90.4453 17.6615 90.4896 17.8359 90.5781 17.9922C90.6667 18.1432 90.7943 18.263 90.9609 18.3516C91.1276 18.4349 91.3229 18.4766 91.5469 18.4766C91.8854 18.4766 92.1797 18.4089 92.4297 18.2734C92.6797 18.138 92.8724 17.9714 93.0078 17.7734C93.1484 17.5755 93.2214 17.388 93.2266 17.2109L93.8203 18.1641C93.737 18.3776 93.6224 18.599 93.4766 18.8281C93.3359 19.0573 93.1562 19.2734 92.9375 19.4766C92.7188 19.6745 92.4557 19.8385 92.1484 19.9688C91.8411 20.0938 91.4766 20.1562 91.0547 20.1562C90.5182 20.1562 90.0312 20.0495 89.5938 19.8359C89.1615 19.6172 88.8177 19.3177 88.5625 18.9375C88.3125 18.5521 88.1875 18.1146 88.1875 17.625C88.1875 17.1823 88.2708 16.7891 88.4375 16.4453C88.6042 16.1016 88.849 15.8125 89.1719 15.5781C89.5 15.3385 89.9089 15.1589 90.3984 15.0391C90.888 14.9141 91.4557 14.8516 92.1016 14.8516H93.4062ZM100.602 18.3984C100.878 18.3984 101.122 18.3464 101.336 18.2422C101.549 18.1328 101.716 17.9818 101.836 17.7891C101.961 17.5911 102.026 17.3594 102.031 17.0938H104.148C104.143 17.6875 103.984 18.2161 103.672 18.6797C103.359 19.138 102.94 19.5 102.414 19.7656C101.888 20.026 101.299 20.1562 100.648 20.1562C99.9922 20.1562 99.4193 20.0469 98.9297 19.8281C98.4453 19.6094 98.0417 19.3073 97.7188 18.9219C97.3958 18.5312 97.1536 18.0781 96.9922 17.5625C96.8307 17.0417 96.75 16.4844 96.75 15.8906V15.6641C96.75 15.0651 96.8307 14.5078 96.9922 13.9922C97.1536 13.4714 97.3958 13.0182 97.7188 12.6328C98.0417 12.2422 98.4453 11.9375 98.9297 11.7188C99.4141 11.5 99.9818 11.3906 100.633 11.3906C101.326 11.3906 101.932 11.5234 102.453 11.7891C102.979 12.0547 103.391 12.4349 103.688 12.9297C103.99 13.4193 104.143 14 104.148 14.6719H102.031C102.026 14.3906 101.966 14.1354 101.852 13.9062C101.742 13.6771 101.581 13.4948 101.367 13.3594C101.159 13.2188 100.901 13.1484 100.594 13.1484C100.266 13.1484 99.9974 13.2188 99.7891 13.3594C99.5807 13.4948 99.4193 13.6823 99.3047 13.9219C99.1901 14.1562 99.1094 14.4245 99.0625 14.7266C99.0208 15.0234 99 15.3359 99 15.6641V15.8906C99 16.2188 99.0208 16.5339 99.0625 16.8359C99.1042 17.138 99.1823 17.4062 99.2969 17.6406C99.4167 17.875 99.5807 18.0599 99.7891 18.1953C99.9974 18.3307 100.268 18.3984 100.602 18.3984ZM107.703 7.99219V20H105.453V7.99219H107.703ZM113.031 11.5469L109.359 15.7344L107.391 17.7266L106.57 16.1016L108.133 14.1172L110.328 11.5469H113.031ZM110.695 20L108.195 16.0938L109.75 14.7344L113.289 20H110.695Z" fill="#05090D"/>
<defs>
<clipPath id="clip0_3322_15282">
<rect width="24" height="24" fill="white"/>
</clipPath>
</defs>
</svg>
